PathFileType	3	(X/Y/Z)	walking_3__view2_aligned.trc
DataRate	CameraRate	NumFrames	NumMarkers	Units	OrigDataRate	OrigDataStartFrame	OrigNumFrames
100.0	100.0	17	19	mm	100.0	4994	6318
Frame#	Time	pelvis			neck			head			hip_left			hip_right			knee_left			knee_right			ankle_left			ankle_right			heel_left			heel_right			toe_left			toe_right			shoulder_left			shoulder_right			elbow_left			elbow_right			wrist_left			wrist_right			
		X1	Y1	Z1	X2	Y2	Z2	X3	Y3	Z3	X4	Y4	Z4	X5	Y5	Z5	X6	Y6	Z6	X7	Y7	Z7	X8	Y8	Z8	X9	Y9	Z9	X10	Y10	Z10	X11	Y11	Z11	X12	Y12	Z12	X13	Y13	Z13	X14	Y14	Z14	X15	Y15	Z15	X16	Y16	Z16	X17	Y17	Z17	X18	Y18	Z18	X19	Y19	Z19	
4994	49.93000	-28.181901	938.230667	184.739886	-30.848771	1498.124207	269.177540	-29.014016	1580.009114	424.053073	48.095792	935.868578	180.309632	-104.459597	940.592744	189.170152	105.889244	528.761838	320.643853	-101.926728	511.516277	265.565192	100.401523	227.254404	102.040096	-95.436425	95.384992	188.940966	93.588294	207.401831	55.454140	-95.842071	42.990213	152.694975	99.578068	91.259173	200.303985	-99.212764	41.348292	389.288557	141.933915	1450.845897	208.091942	-208.867440	1439.323824	245.495401	229.845423	1170.667907	155.893693	-268.537251	1155.762436	232.485062	285.030349	922.651442	231.573966	-284.537295	924.853137	310.561412
4995	49.94000	-27.609974	938.306007	185.328522	-30.114575	1498.567740	268.839067	-27.507786	1580.482982	423.929377	48.667810	935.834846	180.849916	-103.887761	940.777161	189.807142	106.163948	530.020530	330.122791	-100.914447	510.255864	257.128953	100.738225	226.365743	120.219121	-94.406019	95.459456	171.672290	93.995518	205.693888	74.492863	-94.902067	43.466821	134.510285	99.239065	93.767752	220.365211	-98.118096	39.150143	371.834568	142.175753	1451.661899	205.603116	-208.481019	1439.090626	247.225410	230.186926	1171.533713	150.645067	-267.401373	1155.043041	239.791743	289.239357	921.874748	220.931169	-279.237607	926.936945	325.261107
4996	49.95000	-27.038048	938.381347	185.917159	-29.380380	1499.011273	268.500594	-26.001556	1580.956850	423.805680	49.239828	935.801115	181.390200	-103.315924	940.961578	190.444133	106.438651	531.279223	339.601729	-99.902167	508.995451	248.692713	101.074927	225.477082	138.398146	-93.375612	95.533920	154.403614	94.402743	203.985945	93.531586	-93.962063	43.943430	116.325595	98.900062	96.276331	240.426436	-97.023427	36.951995	354.380578	142.417592	1452.477900	203.114290	-208.094598	1438.857428	248.955418	230.528430	1172.399520	145.396441	-266.265495	1154.323646	247.098423	293.448365	921.098053	210.288372	-273.937918	929.020753	339.960802
4997	49.96000	-24.099699	938.028128	186.476432	-25.916063	1499.199505	268.042716	-22.137032	1581.352981	423.318879	52.163508	935.505034	182.080119	-100.362858	940.551216	190.872763	108.994010	532.014230	347.739995	-98.673613	507.350042	241.492244	104.106970	221.694062	156.489108	-92.534722	97.405564	138.598214	97.573645	198.870506	112.542422	-92.945959	46.865086	99.868345	101.287485	96.932957	262.082800	-97.303134	36.180305	335.542582	145.615800	1452.355508	201.177445	-205.215028	1438.822445	250.357043	233.069548	1172.168186	140.717870	-263.573419	1154.079215	253.875975	297.445875	919.488001	199.502062	-267.073983	931.937167	353.290982
4998	49.97000	-21.161350	937.674909	187.035705	-22.451745	1499.387737	267.584838	-18.272508	1581.749112	422.832078	55.087188	935.208954	182.770037	-97.409791	940.140854	191.301393	111.549370	532.749237	355.878261	-97.445059	505.704634	234.291775	107.139013	217.911042	174.580070	-91.693831	99.277208	122.792814	100.744547	193.755068	131.553257	-91.929854	49.786743	83.411096	103.674909	97.589582	283.739163	-97.582841	35.408616	316.704586	148.814008	1452.233115	199.240600	-202.335458	1438.787462	251.758668	235.610667	1171.936852	136.039299	-260.881343	1153.834784	260.653527	301.443385	917.877949	188.715752	-260.210047	934.853582	366.621161
4999	49.98000	-18.223001	937.321690	187.594978	-18.987427	1499.575969	267.126960	-14.407984	1582.145243	422.345277	58.010868	934.912873	183.459956	-94.456725	939.730492	191.730023	114.104729	533.484245	364.016528	-96.216505	504.059226	227.091306	110.171056	214.128022	192.671032	-90.852940	101.148852	106.987414	103.915449	188.639630	150.564092	-90.913749	52.708400	66.953846	106.062333	98.246208	305.395527	-97.862548	34.636926	297.866590	152.012217	1452.110722	197.303755	-199.455888	1438.752479	253.160292	238.151785	1171.705518	131.360728	-258.189267	1153.590352	267.431079	305.440895	916.267897	177.929443	-253.346111	937.769996	379.951341
5000	49.99000	-15.284652	936.968471	188.154251	-15.523109	1499.764201	266.669081	-10.543461	1582.541374	421.858476	60.934548	934.616793	184.149874	-91.503658	939.320130	192.158653	116.660089	534.219252	372.154794	-94.987951	502.413817	219.890836	113.203099	210.345002	210.761994	-90.012049	103.020496	91.182014	107.086351	183.524191	169.574927	-89.897644	55.630056	50.496597	108.449756	98.902833	327.051890	-98.142255	33.865237	279.028593	155.210425	1451.988329	195.366911	-196.576318	1438.717496	254.561917	240.692904	1171.474184	126.682157	-255.497191	1153.345921	274.208630	309.438405	914.657845	167.143133	-246.482176	940.686410	393.281520
5001	50.00000	-12.346303	936.615252	188.713524	-12.058792	1499.952433	266.211203	-6.678937	1582.937505	421.371675	63.858227	934.320712	184.839793	-88.550592	938.909768	192.587283	119.215448	534.954259	380.293060	-93.759396	500.768409	212.690367	116.235142	206.561982	228.852956	-89.171158	104.892140	75.376614	110.257252	178.408753	188.585762	-88.881539	58.551713	34.039347	110.837180	99.559459	348.708254	-98.421962	33.093547	260.190597	158.408633	1451.865936	193.430066	-193.696748	1438.682513	255.963541	243.234022	1171.242850	122.003586	-252.805115	1153.101489	280.986182	313.435915	913.047793	156.356824	-239.618240	943.602825	406.611700
5002	50.01000	-9.407954	936.262033	189.272797	-8.594474	1500.140665	265.753325	-2.814413	1583.333636	420.884875	66.781907	934.024632	185.529711	-85.597525	938.499406	193.015913	121.770808	535.689266	388.431326	-92.530842	499.123000	205.489898	119.267185	202.778962	246.943917	-88.330267	106.763784	59.571214	113.428154	173.293314	207.596597	-87.865434	61.473370	17.582097	113.224604	100.216084	370.364617	-98.701669	32.321858	241.352601	161.606842	1451.743544	191.493221	-190.817178	1438.647529	257.365166	245.775141	1171.011516	117.325015	-250.113039	1152.857058	287.763734	317.433425	911.437741	145.570514	-232.754304	946.519239	419.941879
5003	50.02000	-6.469605	935.908814	189.832070	-5.130156	1500.328897	265.295447	1.050111	1583.729767	420.398074	69.705587	933.728552	186.219630	-82.644459	938.089044	193.444544	124.326167	536.424274	396.569592	-91.302288	497.477592	198.289429	122.299228	198.995942	265.034879	-87.489376	108.635428	43.765814	116.599056	168.177876	226.607432	-86.849329	64.395026	1.124848	115.612028	100.872710	392.020981	-98.981377	31.550168	222.514605	164.805050	1451.621151	189.556376	-187.937608	1438.612546	258.766790	248.316259	1170.780182	112.646444	-247.420963	1152.612627	294.541286	321.430935	909.827689	134.784204	-225.890369	949.435654	433.272059
5004	50.03000	-3.531256	935.555595	190.391343	-1.665839	1500.517129	264.837569	4.914635	1584.125898	419.911273	72.629267	933.432471	186.909548	-79.691392	937.678681	193.873174	126.881526	537.159281	404.707858	-90.073734	495.832184	191.088959	125.331271	195.212922	283.125841	-86.648486	110.507072	27.960413	119.769958	163.062438	245.618267	-85.833224	67.316683	-15.332402	117.999451	101.529335	413.677344	-99.261084	30.778479	203.676608	168.003258	1451.498758	187.619532	-185.058038	1438.577563	260.168415	250.857378	1170.548848	107.967873	-244.728887	1152.368195	301.318838	325.428445	908.217637	123.997895	-219.026433	952.352068	446.602238
5005	50.04000	-0.592907	935.202376	190.950616	1.798479	1500.705361	264.379691	8.779159	1584.522029	419.424472	75.552947	933.136391	187.599467	-76.738326	937.268319	194.301804	129.436886	537.894288	412.846125	-88.845180	494.186775	183.888490	128.363314	191.429902	301.216803	-85.807595	112.378716	12.155013	122.940860	157.946999	264.629102	-84.817119	70.238340	-31.789651	120.386875	102.185961	435.333708	-99.540791	30.006789	184.838612	171.201467	1451.376365	185.682687	-182.178468	1438.542580	261.570039	253.398496	1170.317514	103.289302	-242.036811	1152.123764	308.096390	329.425955	906.607585	113.211585	-212.162497	955.268482	459.932418
5006	50.05000	2.345442	934.849157	191.509889	5.262797	1500.893593	263.921813	12.643683	1584.918160	418.937671	78.476627	932.840310	188.289385	-73.785259	936.857957	194.730434	131.992245	538.629296	420.984391	-87.616626	492.541367	176.688021	131.395357	187.646882	319.307765	-84.966704	114.250360	-3.650387	126.111762	152.831561	283.639937	-83.801014	73.159996	-48.246901	122.774299	102.842586	456.990071	-99.820498	29.235100	166.000616	174.399675	1451.253972	183.745842	-179.298898	1438.507597	262.971664	255.939614	1170.086180	98.610731	-239.344735	1151.879333	314.873941	333.423465	904.997534	102.425275	-205.298561	958.184897	473.262597
5007	50.06000	5.899960	934.104691	192.084993	9.318286	1500.543678	263.215792	16.907466	1585.011931	418.017751	82.022284	932.234127	188.995183	-70.221977	935.975218	195.174836	134.353678	538.464961	423.061519	-86.792086	490.908063	173.067519	134.286649	182.165110	330.815247	-85.057449	118.588001	-14.791456	129.191203	145.818817	295.907325	-83.667529	79.033370	-59.863420	124.880124	101.711832	473.136901	-101.219353	30.591474	150.184242	178.408663	1450.410973	182.373066	-175.702335	1438.244822	263.516094	259.103623	1168.942651	96.722297	-235.780520	1151.552214	318.532223	336.808812	903.919017	97.844397	-197.200566	960.713726	482.016210
5008	50.07000	9.454478	933.360226	192.660097	13.373776	1500.193762	262.509772	21.171249	1585.105701	417.097832	85.567941	931.627944	189.700982	-66.658694	935.092479	195.619237	136.715111	538.300627	425.138647	-85.967546	489.274758	169.447018	137.177940	176.683338	342.322730	-85.148194	122.925641	-25.932524	132.270645	138.806074	308.174712	-83.534044	84.906745	-71.479940	126.985949	100.581078	489.283730	-102.618208	31.947849	134.367868	182.417651	1449.567974	181.000290	-172.105772	1437.982047	264.060524	262.267631	1167.799121	94.833863	-232.216304	1151.225096	322.190505	340.194158	902.840501	93.263518	-189.102571	963.242556	490.769823
5009	50.08000	13.008996	932.615760	193.235201	17.429266	1499.843847	261.803751	25.435032	1585.199472	416.177913	89.113598	931.021761	190.406780	-63.095411	934.209740	196.063639	139.076544	538.136293	427.215775	-85.143007	487.641454	165.826516	140.069232	171.201566	353.830213	-85.238939	127.263282	-37.073593	135.350087	131.793330	320.442100	-83.400558	90.780119	-83.096459	129.091775	99.450324	505.430560	-104.017064	33.304223	118.551494	186.426639	1448.724975	179.627514	-168.509209	1437.719272	264.604954	265.431639	1166.655592	92.945430	-228.652088	1150.897978	325.848787	343.579504	901.761985	88.682640	-181.004576	965.771385	499.523436
5010	50.09000	16.563515	931.871294	193.810305	21.484755	1499.493932	261.097731	29.698815	1585.293242	415.257993	92.659255	930.415578	191.112578	-59.532129	933.327001	196.508041	141.437977	537.971959	429.292904	-84.318467	486.008149	162.206015	142.960524	165.719795	365.337695	-85.329684	131.600923	-48.214662	138.429528	124.780587	332.709487	-83.267073	96.653494	-94.712979	131.197600	98.319570	521.577389	-105.415919	34.660598	102.735120	190.435628	1447.881976	178.254738	-164.912646	1437.456497	265.149385	268.595647	1165.512063	91.056996	-225.087872	1150.570859	329.507069	346.964850	900.683469	84.101762	-172.906581	968.300215	508.277048
